<?xml version="1.0" standalone="no"?>
<svg xmlns="http://www.w3.org/2000/svg" xmlns:xlink="http://www.w3.org/1999/xlink" version="1.1" viewBox="-10 0 2058 2048">
   <path fill="currentColor"
d="M0 960q0 -133 34 -255.5t96.5 -229.5t150 -194.5t194.5 -150t229.5 -96.5t255.5 -34q132 0 254.5 34.5t229.5 97t194.5 150t150 194.5t97 229.5t34.5 254.5q0 133 -34 255.5t-96.5 229.5t-150 194.5t-194.5 150t-229.5 96.5t-255.5 34t-256 -34t-229.5 -96.5t-194 -150
t-150 -194t-96.5 -229.5t-34 -256zM1792 960q0 -115 -29.5 -221.5t-84 -199t-130 -168t-168 -130t-199 -84t-221.5 -29.5t-221.5 29.5t-199 83.5t-168.5 130t-130 168.5t-83.5 199t-29.5 221.5t29.5 221.5t83.5 199t130 168.5t168.5 130t199 83.5t221.5 29.5t221.5 -29.5
t199 -84t168 -130t130 -168t84 -199t29.5 -221.5zM896 1088v-512q0 -26 19 -45t45 -19t45 19t19 45v512q0 26 -19 45t-45 19t-45 -19t-19 -45zM864 1344q0 -40 28 -68t68 -28t68 28t28 68t-28 68t-68 28t-68 -28t-28 -68z" />
</svg>
