<?xml version="1.0" standalone="no"?>
<svg xmlns="http://www.w3.org/2000/svg" xmlns:xlink="http://www.w3.org/1999/xlink" version="1.1" viewBox="-10 0 2058 2048">
   <path fill="currentColor"
d="M207 1922q-39 0 -73.5 -15t-61 -41t-42 -60.5t-15.5 -73.5q0 -46 20 -88l753 -1506q24 -48 71 -77t101 -29t101 29t71 77l753 1506q20 42 20 88q0 39 -15.5 73.5t-41.5 60.5t-61 41t-74 15h-1506zM1713 1794q24 0 44 -18t20 -43q0 -18 -7 -32l-753 -1506
q-8 -17 -23.5 -26t-33.5 -9t-33.5 9.5t-23.5 25.5l-753 1506q-7 14 -7 31q0 26 19.5 44t44.5 18h1506zM896 1216v-512q0 -26 19 -45t45 -19t45 19t19 45v512q0 26 -19 45t-45 19t-45 -19t-19 -45zM864 1472q0 -40 28 -68t68 -28t68 28t28 68t-28 68t-68 28t-68 -28t-28 -68z
" />
</svg>
